<?xml version="1.0" standalone="no"?>
<!DOCTYPE svg PUBLIC "-//W3C//DTD SVG 20010904//EN"
 "http://www.w3.org/TR/2001/REC-SVG-20010904/DTD/svg10.dtd">
<svg version="1.0" xmlns="http://www.w3.org/2000/svg"
 width="76.000000pt" height="76.000000pt" viewBox="0 0 76.000000 76.000000"
 preserveAspectRatio="xMidYMid meet">

<g transform="translate(0.000000,76.000000) scale(0.100000,-0.100000)"
fill="#000000" stroke="none">
<path d="M0 380 l0 -380 380 0 380 0 0 380 0 380 -380 0 -380 0 0 -380z m490
225 c42 -22 59 -82 39 -138 -16 -49 -46 -67 -107 -67 l-43 0 54 -77 c96 -137
106 -154 100 -169 -3 -8 -15 -14 -27 -14 -17 0 -37 20 -76 77 -30 43 -72 103
-94 133 l-41 55 -5 -130 c-5 -128 -5 -130 -29 -133 -13 -2 -28 2 -32 10 -10
15 -12 452 -2 461 3 4 58 7 120 7 82 0 122 -4 143 -15z"/>
<path d="M290 510 l0 -51 88 3 87 3 3 39 c2 24 -2 42 -10 47 -7 5 -48 9 -90 9
l-78 0 0 -50z"/>
</g>
</svg>
